<?xml version="1.0" encoding="UTF-8"?>
<svg
    xmlns="http://www.w3.org/2000/svg" display="block" width="0" height="0" version="1.1" xml:space="preserve">
    <defs>
        <symbol id="icon-logo" viewBox="0 0 100 100" preserveAspectRatio="xMinYMin">
            <rect x="0" y="0" width="100" height="100"/>
        </symbol>
        <symbol id="icon-twitter" viewBox="0 0 16 13">
            <path d="M16,1.538h0M11.08,0A3.284,3.284,0,0,0,7.79,3.278v0a3.083,3.083,0,0,0,.09.748A9.328,9.328,0,0,1,1.11.6,3.3,3.3,0,0,0,2.13,4.983a3.309,3.309,0,0,1-1.49-.41v.041A3.282,3.282,0,0,0,3.28,7.832a3.334,3.334,0,0,1-1.49.056,3.289,3.289,0,0,0,3.07,2.279,6.584,6.584,0,0,1-4.08,1.4A6.756,6.756,0,0,1,0,11.526,9.335,9.335,0,0,0,14.37,3.662c0-.142,0-.284-.01-.425A6.706,6.706,0,0,0,16,1.537a6.568,6.568,0,0,1-1.89.517A3.315,3.315,0,0,0,15.56.238a6.634,6.634,0,0,1-2.09.8A3.276,3.276,0,0,0,11.08,0" />
        </symbol>
        <symbol id="icon-youtube" viewBox="0 0 19 13">
            <path d="M18.3,2.8A4,4,0,0,0,17.564.97,2.644,2.644,0,0,0,15.712.187C13.125,0,9.246,0,9.246,0H9.238S5.358,0,2.771.187A2.644,2.644,0,0,0,.919.97,4,4,0,0,0,.185,2.8,27.948,27.948,0,0,0,0,5.8V7.2a27.948,27.948,0,0,0,.185,2.99,4,4,0,0,0,.734,1.835,3.134,3.134,0,0,0,2.038.79c1.479.142,6.284.186,6.284.186s3.884-.006,6.47-.193a2.644,2.644,0,0,0,1.852-.783A4,4,0,0,0,18.3,10.19a27.985,27.985,0,0,0,.183-2.99V5.8A27.985,27.985,0,0,0,18.3,2.8ZM7.333,8.9V3.7l4.994,2.61Z" />
        </symbol>
        <symbol id="icon-checkbox" viewBox="0 0 183 130">
            <path d="M68,130.5a15.25,15.25,0,0,1-10.61-4.64l-53-53.12A15,15,0,0,1,25.61,51.42L68,93.78,156.87,4.43a15,15,0,1,1,21.27,21.15L78.63,125.83C75.82,128.66,72,129.5,68,130.5Z"/>
        </symbol>
        <symbol id="icon-facebook" viewBox="0 0 8 17">
            <path d="M8.01,0H5.51a3.438,3.438,0,0,0-3.9,3.641V5.319H.03L0,8.508H1.61v8.48h3.7V8.508H7.45l.52-3.185H5.31v-1.3a.921.921,0,0,1,1.09-1.1H7.98Z" />
        </symbol>
        <symbol id="icon-instagram" viewBox="0 0 13 13">
            <path d="M6.5,1.172c1.736,0,1.941.007,2.627.038a2.442,2.442,0,0,1,2.664,2.664c.031.685.037.891.037,2.627s-.006,1.941-.037,2.627a2.443,2.443,0,0,1-2.664,2.664c-.686.031-.891.038-2.627.038s-1.941-.006-2.627-.038A2.443,2.443,0,0,1,1.209,9.127c-.031-.685-.038-.891-.038-2.627s.007-1.941.038-2.627A2.442,2.442,0,0,1,3.873,1.209C4.559,1.178,4.764,1.172,6.5,1.172ZM6.5,0C4.735,0,4.514.008,3.82.039A3.588,3.588,0,0,0,.04,3.82C.008,4.514,0,4.735,0,6.5S.008,8.487.039,9.18A3.588,3.588,0,0,0,3.82,12.961c.694.031.915.039,2.68.039s1.987-.008,2.68-.039A3.588,3.588,0,0,0,12.96,9.18c.032-.693.04-.915.04-2.68s-.008-1.986-.039-2.68A3.588,3.588,0,0,0,9.181.04C8.487.008,8.265,0,6.5,0Zm0,3.162A3.338,3.338,0,1,0,9.838,6.5,3.338,3.338,0,0,0,6.5,3.162Zm0,5.5A2.167,2.167,0,1,1,8.667,6.5,2.166,2.166,0,0,1,6.5,8.667ZM9.97,2.251a.78.78,0,1,0,.779.78A.78.78,0,0,0,9.97,2.251Z" />
        </symbol>
        <symbol id="icon-list" viewBox="0 0 22 18">
            <path d="M8,7H20a2,2,0,0,1,2,2h0a2,2,0,0,1-2,2H8A2,2,0,0,1,6,9H6A2,2,0,0,1,8,7Z"/>
            <path d="M8,14H20a2,2,0,0,1,2,2h0a2,2,0,0,1-2,2H8a2,2,0,0,1-2-2H6A2,2,0,0,1,8,14Z"/>
            <circle cx="2" cy="2" r="2"/>
            <circle cx="2" cy="9" r="2"/>
            <circle cx="2" cy="16" r="2"/>
            <path d="M8,0H20a2,2,0,0,1,2,2h0a2,2,0,0,1-2,2H8A2,2,0,0,1,6,2H6A2,2,0,0,1,8,0Z"/>
        </symbol>
        <symbol id="icon-compass" viewBox="0 0 50 50">
            <g>
            <path d="M25,48.5a23.5,23.5,0,1,1,12.44-3.58A23.39,23.39,0,0,1,25,48.5Z" style="fill: #fff"/>
            <path d="M25,3h0A22,22,0,1,1,13.33,6.35,21.9,21.9,0,0,1,25,3m0-3A25,25,0,1,0,46.19,11.74,24.88,24.88,0,0,0,25,0Z" style="fill: #e51c27"/>
            </g>
            <path d="M21.91,20.06l6.18,9.88a.62.62,0,0,1-.39.93L10.81,34.5a.56.56,0,0,1-.56-.9L20.9,20A.62.62,0,0,1,21.91,20.06Z" style="fill: #e51c27"/>
            <path d="M28.09,29.94l-6.18-9.88a.62.62,0,0,1,.39-.93L39.19,15.5a.56.56,0,0,1,.56.9L29.1,30A.62.62,0,0,1,28.09,29.94Z" style="fill: #fff"/>
            <path d="M24.13,20.45l12.41-2.67-7.83,10-4.58-7.32m-2.22-.39,6.18,9.88a.62.62,0,0,0,1,.05l10.66-13.6a.56.56,0,0,0-.56-.9L22.3,19.13a.62.62,0,0,0-.39.93Z" style="fill: #e51c27"/>
            <ellipse cx="25" cy="25" rx="4.25" ry="6.5" transform="translate(-9.45 17.06) rotate(-32.03)" style="fill: #e51c27"/>
            <g>
            <path d="M25,28.5A3.5,3.5,0,1,1,26.86,28,3.48,3.48,0,0,1,25,28.5Z" style="fill: #fff"/>
            <path d="M25,23h0a2,2,0,1,1-1.06.31A2,2,0,0,1,25,23m0-3a5,5,0,1,0,4.24,2.35A5,5,0,0,0,25,20Z" style="fill: #e51c27"/>
            </g>
        </symbol>
        <symbol id="icon-search" viewBox="0 0 19 20">
            <path d="M18.36,17.82l-3.88-3.88a8.34,8.34,0,1,0-2,1.61l4.08,4.08a1.28,1.28,0,0,0,1.81-1.81ZM2.55,8.33A5.77,5.77,0,1,1,8.33,14.1,5.78,5.78,0,0,1,2.55,8.33Z"/>
        </symbol>
        <symbol id="icon-arrow" viewBox="0 0 14 13">
            <path d="M9.24,7.24v.05a6.83,6.83,0,0,0-1.64,1.4L5.94,10.52l1.89,1.62,5.46-6.07L7.83,0,5.94,1.62,7.29,3.08a9.72,9.72,0,0,0,2,1.77V4.9H0V7.24Z"/>
        </symbol>
        <symbol id="icon-share" viewBox="0 0 20 20">
            <path d="M15.66,13a3.44,3.44,0,0,0-2.08.72L6.89,10.58a4.61,4.61,0,0,0,0-.58,4.76,4.76,0,0,0,0-.58l6.66-3.18A3.48,3.48,0,1,0,12.2,3.48a5.1,5.1,0,0,0,0,.58L5.61,7.23a3.48,3.48,0,1,0,0,5.53l6.66,3.18a4.46,4.46,0,0,0,0,.58A3.43,3.43,0,1,0,15.66,13Z"/>
        </symbol>
        <symbol id="icon-send" viewBox="0 0 22 19">
            <path d="M21.1.12.59,10.51c-.83.42-.77.95.14,1.17l6.33,1.53,3.47,5.43a.74.74,0,0,0,.61.36h0a.74.74,0,0,0,.61-.35l2.5-3.7L18.76,16l.15,0a.64.64,0,0,0,.36-.11.65.65,0,0,0,.28-.43L22,.77C22.09.11,21.69-.18,21.1.12ZM10.79,13.49h0l0,0,0,0h0v.07h0v.09h0v3.59L7.87,12.91,18.51,3.62Z"/>
        </symbol>
        <symbol id="icon-pin" viewBox="0 0 46 71">
            <path d="M22.9,0A22.9,22.9,0,0,0,0,22.9c0,9.8,13.7,35.3,19.9,46.3a3.47,3.47,0,0,0,6,0c6.2-11,19.9-36.5,19.9-46.3A22.9,22.9,0,0,0,22.9,0Zm0,35.4A11.4,11.4,0,1,1,34.3,24,11.39,11.39,0,0,1,22.9,35.4Z"/>
        </symbol>
        <symbol id="icon-close" viewBox="0 0 11 11">
            <polygon points="10.94 1.64 9.3 0 5.47 3.83 1.64 0 0 1.64 3.83 5.47 0 9.3 1.64 10.94 5.47 7.1 9.3 10.94 10.94 9.3 7.1 5.47 10.94 1.64"/>
        </symbol>
        <symbol id="icon-upload" viewBox="0 0 16 17">
            <path d="M8.7,11.58H7.3V2.93l0,0a5.92,5.92,0,0,1-.92,1L4,6.21l-.85-1L8,.61l4.87,4.6-.86,1L9.66,3.93a5.91,5.91,0,0,1-.92-1l0,0Z"/>
            <polygon points="15 13 15 16 1 16 1 13 0 13 0 17 1 17 15 17 16 17 16 13 15 13"/>
        </symbol>
    </defs>
</svg>